<?xml version="1.0" encoding="UTF-8" standalone="no"?>
<svg
   xmlns:dc="http://purl.org/dc/elements/1.1/"
   xmlns:cc="http://creativecommons.org/ns#"
   xmlns:rdf="http://www.w3.org/1999/02/22-rdf-syntax-ns#"
   xmlns:svg="http://www.w3.org/2000/svg"
   xmlns="http://www.w3.org/2000/svg"
   xmlns:sodipodi="http://sodipodi.sourceforge.net/DTD/sodipodi-0.dtd"
   xmlns:inkscape="http://www.inkscape.org/namespaces/inkscape"
   width="510.86572mm"
   height="297.10904mm"
   viewBox="0 0 510.86572 297.10905"
   version="1.1"
   id="svg15003"
   inkscape:version="1.0.2-2 (e86c870879, 2021-01-15)"
   sodipodi:docname="Logo of the Regional Municipality of Niagara.svg">
  <defs
     id="defs14997" />
  <sodipodi:namedview
     id="base"
     pagecolor="#ffffff"
     bordercolor="#666666"
     borderopacity="1.0"
     inkscape:pageopacity="0.0"
     inkscape:pageshadow="2"
     inkscape:zoom="0.7"
     inkscape:cx="967.71437"
     inkscape:cy="487.41973"
     inkscape:document-units="mm"
     inkscape:current-layer="layer1"
     inkscape:document-rotation="0"
     showgrid="false"
     inkscape:snap-bbox="true"
     inkscape:bbox-paths="true"
     inkscape:bbox-nodes="true"
     inkscape:snap-bbox-edge-midpoints="true"
     inkscape:snap-bbox-midpoints="true"
     inkscape:snap-global="true"
     inkscape:window-width="2560"
     inkscape:window-height="1377"
     inkscape:window-x="-8"
     inkscape:window-y="-8"
     inkscape:window-maximized="1" />
  <metadata
     id="metadata15000">
    <rdf:RDF>
      <cc:Work
         rdf:about="">
        <dc:format>image/svg+xml</dc:format>
        <dc:type
           rdf:resource="http://purl.org/dc/dcmitype/StillImage" />
        <dc:title />
      </cc:Work>
    </rdf:RDF>
  </metadata>
  <g
     inkscape:label="Layer 1"
     inkscape:groupmode="layer"
     id="layer1"
     transform="translate(300.16634,0.04364505)">
    <g
       id="g921">
      <path
         style="fill:#1a7d39;fill-opacity:1;stroke:none;stroke-width:2.25031;stroke-linecap:butt;stroke-linejoin:miter;stroke-miterlimit:4;stroke-dasharray:none;stroke-opacity:1"
         d="m 203.68386,96.24648 h -417.77529 l -31.80014,55.0795 h -21.55351 l -29.64687,51.34987 h 36.43734 l -16.03629,27.77568 h 70.36 l -19.04002,32.97827 h 28.74069 l -18.34167,31.76867 h 339.43367 l 83.33645,-144.34303 h -34.18644 z"
         id="path15580" />
      <path
         style="fill:#ffffff;stroke:none;stroke-width:2.18838;stroke-linecap:butt;stroke-linejoin:miter;stroke-miterlimit:4;stroke-dasharray:none;stroke-opacity:1"
         d="m 172.64395,94.129813 -60.36612,92.427337 h 34.18643 L 86.013529,296.88622 H 62.820106 L 115.63843,203.71443 H 83.164 L 145.65373,94.278934 Z"
         id="path15586"
         sodipodi:nodetypes="ccccccccc" />
      <path
         style="fill:#1353b4;fill-opacity:1;stroke:none;stroke-width:3.35;stroke-linecap:butt;stroke-linejoin:miter;stroke-miterlimit:4;stroke-dasharray:none;stroke-opacity:1"
         d="m 203.68386,96.24648 -30.07208,54.60896 h 34.18644 L 124.46177,295.19849 H 86.013529 L 146.46426,186.55715 h -34.18643 l 52.95779,-90.31067 z"
         id="path15588"
         sodipodi:nodetypes="ccccccccc" />
      <path
         style="fill:#1353b4;fill-opacity:1;stroke:none;stroke-width:0.457714px;stroke-linecap:butt;stroke-linejoin:miter;stroke-opacity:1"
         d="m 15.371962,96.70194 -114.601723,198.49655 35.809384,0.0908 L 51.234137,96.70187 Z"
         id="path15598" />
      <path
         style="fill:#ffffff;stroke:none;stroke-width:2.18838;stroke-linecap:butt;stroke-linejoin:miter;stroke-miterlimit:4;stroke-dasharray:none;stroke-opacity:1"
         d="M -40.642301,296.86951 73.959731,94.585274 H 51.234137 L -64.47871,296.87688 Z"
         id="path15594"
         sodipodi:nodetypes="ccccc" />
      <path
         style="fill:#ffffff;stroke:none;stroke-width:2.18838;stroke-linecap:butt;stroke-linejoin:miter;stroke-miterlimit:4;stroke-dasharray:none;stroke-opacity:1"
         d="M -99.229761,296.97391 15.371965,94.056106 H -7.3534996 L -122.00784,297.0648 Z"
         id="path15596"
         sodipodi:nodetypes="ccccc" />
      <path
         style="fill:none;fill-opacity:1;stroke:#1353b4;stroke-width:3.35;stroke-linecap:butt;stroke-linejoin:miter;stroke-miterlimit:4;stroke-dasharray:none;stroke-opacity:1"
         d="M -64.818181,295.19848 49.783544,96.701939 H 15.37196 L -99.229765,295.31541 Z"
         id="path16136"
         sodipodi:nodetypes="ccccc" />
      <path
         style="fill:none;stroke:#1a7d39;stroke-width:3.35;stroke-linecap:butt;stroke-linejoin:miter;stroke-miterlimit:4;stroke-dasharray:none;stroke-opacity:1"
         d="M -40.642305,295.19848 73.959731,96.323963 145.12455,96.017623 83.164003,203.71443 h 32.474427 l -52.818319,91.48405 z"
         id="path16140"
         sodipodi:nodetypes="ccccccc" />
      <path
         style="fill:#ffffff;stroke:none;stroke-width:0.264583px;stroke-linecap:butt;stroke-linejoin:miter;stroke-opacity:1"
         d="M -59.917524,1.6313549 V 38.023693 h -23.584423 v 58.047668 l 76.1484475,-1.63584 22.4892245,0.630088 34.64781,-0.01732 24.176196,-0.394765 71.164819,-0.289635 20.11106,-0.138639 39.12179,1.825871 V 1.6313549 Z"
         id="path16148"
         sodipodi:nodetypes="ccccccccccccc" />
      <g
         aria-label="NIAGARA "
         transform="skewX(-15)"
         id="text15656"
         style="font-style:normal;font-variant:normal;font-weight:normal;font-stretch:normal;font-size:56.3239px;line-height:1.25;font-family:Arial;-inkscape-font-specification:Arial;letter-spacing:2.09878px;word-spacing:0px;fill:#1353b4;fill-opacity:1;stroke:#1353b4;stroke-width:1.691;stroke-miterlimit:4;stroke-dasharray:none;stroke-opacity:1">
        <path
           d="m -50.955579,88.242393 v -40.31779 h 5.472878 l 21.176466,31.654691 V 47.924603 h 5.115354 v 40.31779 H -24.66376 L -45.840225,56.560201 v 31.682192 z"
           style="font-style:normal;font-variant:normal;font-weight:normal;font-stretch:normal;font-family:Arial;-inkscape-font-specification:Arial;fill:#1353b4;fill-opacity:1;stroke:#1353b4;stroke-width:1.691;stroke-miterlimit:4;stroke-dasharray:none;stroke-opacity:1"
           id="path861" />
        <path
           d="m -7.2189153,88.242393 v -40.31779 h 5.3353693 v 40.31779 z"
           style="font-style:normal;font-variant:normal;font-weight:normal;font-stretch:normal;font-family:Arial;-inkscape-font-specification:Arial;fill:#1353b4;fill-opacity:1;stroke:#1353b4;stroke-width:1.691;stroke-miterlimit:4;stroke-dasharray:none;stroke-opacity:1"
           id="path863" />
        <path
           d="M 5.1930756,88.242393 20.676647,47.924603 h 5.747898 l 16.501142,40.31779 h -6.07792 L 32.144941,76.031548 H 15.286274 L 10.858468,88.242393 Z M 16.826381,71.686248 H 30.494827 L 26.287036,60.520475 q -1.925134,-5.087852 -2.860198,-8.360579 -0.770054,3.877769 -2.172651,7.700533 z"
           style="font-style:normal;font-variant:normal;font-weight:normal;font-stretch:normal;font-family:Arial;-inkscape-font-specification:Arial;fill:#1353b4;fill-opacity:1;stroke:#1353b4;stroke-width:1.691;stroke-miterlimit:4;stroke-dasharray:none;stroke-opacity:1"
           id="path865" />
        <path
           d="m 68.153566,72.428799 v -4.730327 l 17.078682,-0.0275 v 14.961035 q -3.932772,3.135217 -8.113062,4.730328 -4.180289,1.567608 -8.580593,1.567608 -5.940412,0 -10.808249,-2.530175 -4.840335,-2.557677 -7.315506,-7.37051 -2.475171,-4.812833 -2.475171,-10.753244 0,-5.885408 2.447669,-10.97326 2.475172,-5.115354 7.095491,-7.590525 4.62032,-2.475172 10.643237,-2.475172 4.372803,0 7.893046,1.430099 3.547746,1.402597 5.555385,3.932773 2.007639,2.530175 3.052711,6.600456 l -4.812833,1.320092 Q 78.90681,57.440262 77.559217,55.68014 76.211624,53.920018 73.70895,52.874946 q -2.502673,-1.072575 -5.555384,-1.072575 -3.657753,0 -6.325438,1.127578 -2.667685,1.100077 -4.317799,2.915202 -1.622612,1.815126 -2.530175,3.987776 -1.540106,3.740259 -1.540106,8.113062 0,5.390373 1.842627,9.020624 1.87013,3.630251 5.417875,5.390373 3.547746,1.760122 7.535522,1.760122 3.465239,0 6.765468,-1.320091 3.300228,-1.347594 5.005346,-2.860198 v -7.50802 z"
           style="font-style:normal;font-variant:normal;font-weight:normal;font-stretch:normal;font-family:Arial;-inkscape-font-specification:Arial;fill:#1353b4;fill-opacity:1;stroke:#1353b4;stroke-width:1.691;stroke-miterlimit:4;stroke-dasharray:none;stroke-opacity:1"
           id="path867" />
        <path
           d="m 90.768771,88.242393 15.483569,-40.31779 h 5.7479 l 16.50114,40.31779 h -6.07792 L 117.72064,76.031548 H 100.86197 L 96.434163,88.242393 Z M 102.40208,71.686248 h 13.66844 l -4.20779,-11.165773 q -1.92513,-5.087852 -2.8602,-8.360579 -0.77005,3.877769 -2.17265,7.700533 z"
           style="font-style:normal;font-variant:normal;font-weight:normal;font-stretch:normal;font-family:Arial;-inkscape-font-specification:Arial;fill:#1353b4;fill-opacity:1;stroke:#1353b4;stroke-width:1.691;stroke-miterlimit:4;stroke-dasharray:none;stroke-opacity:1"
           id="path869" />
        <path
           d="m 134.94546,88.242393 v -40.31779 h 17.87624 q 5.39038,0 8.19557,1.100076 2.80519,1.072574 4.48281,3.822765 1.67762,2.75019 1.67762,6.07792 0,4.290297 -2.7777,7.233001 -2.77769,2.942704 -8.58059,3.740259 2.11765,1.01757 3.21772,2.007639 2.33766,2.145148 4.42781,5.362871 l 7.01298,10.973259 h -6.71046 l -5.33537,-8.38808 q -2.33766,-3.630251 -3.85027,-5.555385 -1.5126,-1.925133 -2.72268,-2.695186 -1.18259,-0.770053 -2.42017,-1.072574 -0.90756,-0.192514 -2.97021,-0.192514 h -6.18793 v 17.903739 z m 5.33537,-22.524058 h 11.4683 q 3.65775,0 5.72039,-0.742552 2.06265,-0.770053 3.13522,-2.420167 1.07257,-1.677616 1.07257,-3.630252 0,-2.860198 -2.09014,-4.702825 -2.06264,-1.842628 -6.54545,-1.842628 h -12.76089 z"
           style="font-style:normal;font-variant:normal;font-weight:normal;font-stretch:normal;font-family:Arial;-inkscape-font-specification:Arial;fill:#1353b4;fill-opacity:1;stroke:#1353b4;stroke-width:1.691;stroke-miterlimit:4;stroke-dasharray:none;stroke-opacity:1"
           id="path871" />
        <path
           d="m 173.20925,88.242393 15.48357,-40.31779 h 5.7479 l 16.50114,40.31779 h -6.07792 l -4.70283,-12.210845 h -16.85867 l -4.4278,12.210845 z m 11.6333,-16.556145 H 198.511 l -4.20779,-11.165773 q -1.92514,-5.087852 -2.8602,-8.360579 -0.77006,3.877769 -2.17265,7.700533 z"
           style="font-style:normal;font-variant:normal;font-weight:normal;font-stretch:normal;font-family:Arial;-inkscape-font-specification:Arial;fill:#1353b4;fill-opacity:1;stroke:#1353b4;stroke-width:1.691;stroke-miterlimit:4;stroke-dasharray:none;stroke-opacity:1"
           id="path873" />
      </g>
      <g
         aria-label="REGION OF"
         transform="skewX(-15)"
         id="text15660"
         style="font-style:normal;font-variant:normal;font-weight:normal;font-stretch:normal;font-size:41.8131px;line-height:1.25;font-family:Arial;-inkscape-font-specification:Arial;letter-spacing:1.55807px;word-spacing:0px;fill:#1353b4;fill-opacity:1;stroke:#1353b4;stroke-width:2.033;stroke-miterlimit:4;stroke-dasharray:none;stroke-opacity:1">
        <path
           d="M -41.465022,38.106457 V 8.1757912 h 13.270759 q 4.001644,0 6.084133,0.8166621 2.082488,0.7962456 3.327898,2.8379007 1.245409,2.041655 1.245409,4.512058 0,3.184982 -2.062071,5.369553 -2.062072,2.184571 -6.369965,2.776651 1.572075,0.755413 2.388737,1.490409 1.735407,1.592491 3.287065,3.981227 l 5.206221,8.146205 h -4.981639 l -3.960811,-6.227049 q -1.735407,-2.694985 -2.858317,-4.124143 -1.122911,-1.429159 -2.021239,-2.000822 -0.877912,-0.571664 -1.796657,-0.796246 -0.673746,-0.142916 -2.204987,-0.142916 h -4.593725 v 13.291176 z m 3.960811,-16.721156 h 8.513703 q 2.715401,0 4.246643,-0.551247 1.531241,-0.571664 2.327486,-1.796657 0.796246,-1.24541 0.796246,-2.694985 0,-2.123321 -1.551658,-3.49123 -1.531241,-1.367909 -4.859139,-1.367909 h -9.473281 z"
           style="font-style:normal;font-variant:normal;font-weight:normal;font-stretch:normal;font-family:Arial;-inkscape-font-specification:Arial;fill:#1353b4;fill-opacity:1;stroke:#1353b4;stroke-width:2.033;stroke-miterlimit:4;stroke-dasharray:none;stroke-opacity:1"
           id="path876" />
        <path
           d="M -9.6904548,38.106457 V 8.1757912 H 11.951091 V 11.707855 H -5.7296437 v 9.167032 H 10.82818 v 3.511647 H -5.7296437 V 34.574393 H 12.645253 v 3.532064 z"
           style="font-style:normal;font-variant:normal;font-weight:normal;font-stretch:normal;font-family:Arial;-inkscape-font-specification:Arial;fill:#1353b4;fill-opacity:1;stroke:#1353b4;stroke-width:2.033;stroke-miterlimit:4;stroke-dasharray:none;stroke-opacity:1"
           id="path878" />
        <path
           d="m 33.680713,26.366939 v -3.511647 l 12.678678,-0.02042 V 33.94148 q -2.919567,2.327487 -6.022882,3.511647 -3.103316,1.163744 -6.369965,1.163744 -4.409975,0 -8.023705,-1.878323 -3.593313,-1.89874 -5.430803,-5.471636 -1.837489,-3.572897 -1.837489,-7.982872 0,-4.369142 1.817073,-8.146204 1.837489,-3.797479 5.26747,-5.6349689 3.429981,-1.8374897 7.901206,-1.8374897 3.246232,0 5.85955,1.0616607 2.633736,1.0412442 4.124144,2.9195669 1.490408,1.878323 2.266237,4.899973 l -3.572896,0.979994 Q 41.663584,15.239918 40.663173,13.933259 39.662762,12.6266 37.804856,11.850771 35.94695,11.054525 33.680713,11.054525 q -2.715402,0 -4.695807,0.837079 -1.980406,0.816662 -3.205399,2.164154 -1.204577,1.347493 -1.878323,2.9604 -1.143327,2.776651 -1.143327,6.022883 0,4.001644 1.367909,6.696629 1.388326,2.694985 4.022061,4.001645 2.633735,1.306659 5.594135,1.306659 2.572486,0 5.022472,-0.979995 2.449986,-1.000411 3.715813,-2.123321 v -5.573719 z"
           style="font-style:normal;font-variant:normal;font-weight:normal;font-stretch:normal;font-family:Arial;-inkscape-font-specification:Arial;fill:#1353b4;fill-opacity:1;stroke:#1353b4;stroke-width:2.033;stroke-miterlimit:4;stroke-dasharray:none;stroke-opacity:1"
           id="path880" />
        <path
           d="M 54.430342,38.106457 V 8.1757912 h 3.960811 V 38.106457 Z"
           style="font-style:normal;font-variant:normal;font-weight:normal;font-stretch:normal;font-family:Arial;-inkscape-font-specification:Arial;fill:#1353b4;fill-opacity:1;stroke:#1353b4;stroke-width:2.033;stroke-miterlimit:4;stroke-dasharray:none;stroke-opacity:1"
           id="path882" />
        <path
           d="m 65.727106,23.529038 q 0,-7.452041 4.001645,-11.657851 4.001644,-4.2262261 10.330775,-4.2262261 4.14456,0 7.472458,1.9804055 3.327898,1.9804056 5.063305,5.5328856 1.755824,3.532064 1.755824,8.023705 0,4.552891 -1.83749,8.146204 -1.83749,3.593314 -5.206221,5.45122 -3.368731,1.83749 -7.268292,1.83749 -4.226227,0 -7.554125,-2.041656 -3.327898,-2.041655 -5.042888,-5.573718 -1.714991,-3.532064 -1.714991,-7.472459 z m 4.083311,0.06125 q 0,5.410386 2.89915,8.534119 2.919567,3.103316 7.309126,3.103316 4.471225,0 7.349959,-3.144149 2.89915,-3.144149 2.89915,-8.922033 0,-3.654563 -1.24541,-6.369965 -1.224993,-2.735818 -3.613729,-4.226226 -2.36832,-1.510825 -5.32872,-1.510825 -4.20581,0 -7.247876,2.899151 -3.02165,2.878733 -3.02165,9.636612 z"
           style="font-style:normal;font-variant:normal;font-weight:normal;font-stretch:normal;font-family:Arial;-inkscape-font-specification:Arial;fill:#1353b4;fill-opacity:1;stroke:#1353b4;stroke-width:2.033;stroke-miterlimit:4;stroke-dasharray:none;stroke-opacity:1"
           id="path884" />
        <path
           d="M 100.97249,38.106457 V 8.1757912 h 4.0629 L 120.75613,31.675243 V 8.1757912 h 3.79748 V 38.106457 h -4.06289 L 104.76997,14.586589 v 23.519868 z"
           style="font-style:normal;font-variant:normal;font-weight:normal;font-stretch:normal;font-family:Arial;-inkscape-font-specification:Arial;fill:#1353b4;fill-opacity:1;stroke:#1353b4;stroke-width:2.033;stroke-miterlimit:4;stroke-dasharray:none;stroke-opacity:1"
           id="path886" />
        <path
           d="m 144.73798,23.529038 q 0,-7.452041 4.00164,-11.657851 4.00165,-4.2262261 10.33078,-4.2262261 4.14456,0 7.47246,1.9804055 3.32789,1.9804056 5.0633,5.5328856 1.75582,3.532064 1.75582,8.023705 0,4.552891 -1.83749,8.146204 -1.83748,3.593314 -5.20622,5.45122 -3.36873,1.83749 -7.26829,1.83749 -4.22622,0 -7.55412,-2.041656 -3.3279,-2.041655 -5.04289,-5.573718 -1.71499,-3.532064 -1.71499,-7.472459 z m 4.08331,0.06125 q 0,5.410386 2.89915,8.534119 2.91957,3.103316 7.30912,3.103316 4.47123,0 7.34996,-3.144149 2.89915,-3.144149 2.89915,-8.922033 0,-3.654563 -1.24541,-6.369965 -1.22499,-2.735818 -3.61373,-4.226226 -2.36832,-1.510825 -5.32872,-1.510825 -4.20581,0 -7.24787,2.899151 -3.02165,2.878733 -3.02165,9.636612 z"
           style="font-style:normal;font-variant:normal;font-weight:normal;font-stretch:normal;font-family:Arial;-inkscape-font-specification:Arial;fill:#1353b4;fill-opacity:1;stroke:#1353b4;stroke-width:2.033;stroke-miterlimit:4;stroke-dasharray:none;stroke-opacity:1"
           id="path888" />
        <path
           d="M 180.22837,38.106457 V 8.1757912 h 20.19197 v 3.5320638 h -16.23116 v 9.269114 h 14.04659 v 3.532064 h -14.04659 v 13.597424 z"
           style="font-style:normal;font-variant:normal;font-weight:normal;font-stretch:normal;font-family:Arial;-inkscape-font-specification:Arial;fill:#1353b4;fill-opacity:1;stroke:#1353b4;stroke-width:2.033;stroke-miterlimit:4;stroke-dasharray:none;stroke-opacity:1"
           id="path890" />
      </g>
      <path
         style="fill:none;stroke:#1353b4;stroke-width:3.35;stroke-linecap:butt;stroke-linejoin:miter;stroke-miterlimit:4;stroke-dasharray:none;stroke-opacity:1"
         d="m -7.3534995,96.172773 -76.1484445,-0.10141 v -58.04767 h 23.584423 V 1.6313549 H 204.3574 V 96.051123 l -39.12179,0.195355 -52.95778,90.310672 h 34.18641 L 86.013513,295.19848 H 124.46176 L 207.7982,150.85544 h -34.18644 l 30.97412,-54.041014"
         id="path16142"
         sodipodi:nodetypes="ccccccccccccccc" />
      <path
         style="fill:#1a7d39;fill-opacity:1;stroke:#1a7d39;stroke-width:3.55;stroke-linecap:butt;stroke-linejoin:miter;stroke-miterlimit:4;stroke-dasharray:none;stroke-opacity:1"
         d="m -7.3534995,96.182222 -206.7379305,0.06426 -31.80014,55.079498 h -21.55351 l -29.64687,51.34987 h 36.43734 l -16.03629,27.77568 h 70.36 l -19.04002,32.97827 h 28.74069 l -18.34167,31.76868 92.96406,0.0909 z"
         id="path16134"
         sodipodi:nodetypes="ccccccccccccc" />
    </g>
  </g>
</svg>
